<?xml version="1.0" encoding="UTF-8"?>
<svg version="1.1" xmlns="http://www.w3.org/2000/svg" width="108" height="102">
<path d="M0 0 C23.1 0 46.2 0 70 0 C70 0.66 70 1.32 70 2 C71.258125 2.0825 72.51625 2.165 73.8125 2.25 C77.72032193 2.72032193 77.72032193 2.72032193 80 5 C81 7 81 7 81 8 C82.65 8.33 84.3 8.66 86 9 C86 9.66 86 10.32 86 11 C86.99 11.33 87.98 11.66 89 12 C91 14 91 14 91 17 C91.99 17 92.98 17 94 17 C94.495 18.485 94.495 18.485 95 20 C96.29135981 23.14559878 96.29135981 23.14559878 99 25 C99.73075648 27.3140622 100.40138258 29.64828869 101 32 C101.33 32 101.66 32 102 32 C102.495 35.465 102.495 35.465 103 39 C103.33 39 103.66 39 104 39 C104.02900455 42.6041498 104.04680018 46.20826962 104.0625 49.8125 C104.07087891 50.83666016 104.07925781 51.86082031 104.08789062 52.91601562 C104.09111328 53.89892578 104.09433594 54.88183594 104.09765625 55.89453125 C104.10289307 56.80050049 104.10812988 57.70646973 104.11352539 58.63989258 C104 61 104 61 103 64 C102.65179959 65.66362417 102.31595508 67.32995171 102 69 C101.34 68.34 100.68 67.68 100 67 C99.814375 68.9490625 99.814375 68.9490625 99.625 70.9375 C99.4140625 73.15234375 99.4140625 73.15234375 99 75 C98.01 75.495 98.01 75.495 97 76 C96.5359375 76.99 96.5359375 76.99 96.0625 78 C95 80 95 80 92 81 C91.67 82.65 91.34 84.3 91 86 C89.515 86.495 89.515 86.495 88 87 C87.54625 87.680625 87.0925 88.36125 86.625 89.0625 C85 91 85 91 82.3125 91.25 C81.549375 91.1675 80.78625 91.085 80 91 C80 91.99 80 92.98 80 94 C78.35 94.33 76.7 94.66 75 95 C75 95.66 75 96.32 75 97 C74.38511719 97.04898438 73.77023438 97.09796875 73.13671875 97.1484375 C71.92435547 97.26058594 71.92435547 97.26058594 70.6875 97.375 C69.48673828 97.47941406 69.48673828 97.47941406 68.26171875 97.5859375 C65.72775559 97.89564426 65.72775559 97.89564426 63 100 C60.24751282 100.24050903 60.24751282 100.24050903 56.8762207 100.22705078 C55.59751099 100.22680908 54.31880127 100.22656738 53.00134277 100.22631836 C51.64282028 100.21624735 50.2842997 100.2059142 48.92578125 100.1953125 C47.69033569 100.19329834 46.45489014 100.19128418 45.18200684 100.18920898 C40.55880022 100.17873034 35.93564645 100.15080786 31.3125 100.125 C20.979375 100.08375 10.64625 100.0425 0 100 C0 67 0 34 0 0 Z M102 46 C102 49.3 102 52.6 102 56 C102.33 56 102.66 56 103 56 C103 52.7 103 49.4 103 46 C102.67 46 102.34 46 102 46 Z " fill="#18295C" transform="translate(4,2)"/>
<path d="M0 0 C17.49 0 34.98 0 53 0 C53 4.29 53 8.58 53 13 C46.07 13 39.14 13 32 13 C32 26.86 32 40.72 32 55 C28.37 55 24.74 55 21 55 C21 41.14 21 27.28 21 13 C14.07 13 7.14 13 0 13 C0 8.71 0 4.42 0 0 Z " fill="#30B1A4" transform="translate(34,33)"/>
<path d="M0 0 C20.79 0 41.58 0 63 0 C63.495 1.485 63.495 1.485 64 3 C43.87 3 23.74 3 3 3 C3 34.02 3 65.04 3 97 C20.16 97 37.32 97 55 97 C55 97.33 55 97.66 55 98 C54.30849854 98.02505615 53.61699707 98.0501123 52.90454102 98.07592773 C49.79032134 98.19152161 46.67643211 98.31441242 43.5625 98.4375 C42.47388672 98.47681641 41.38527344 98.51613281 40.26367188 98.55664062 C39.22919922 98.59853516 38.19472656 98.64042969 37.12890625 98.68359375 C36.17056885 98.72025146 35.21223145 98.75690918 34.22485352 98.79467773 C32.02861075 98.75834424 32.02861075 98.75834424 31 100 C20.77 100 10.54 100 0 100 C0 67 0 34 0 0 Z " fill="#5D6680" transform="translate(4,2)"/>
<path d="M0 0 C2.31 0 4.62 0 7 0 C7 0.66 7 1.32 7 2 C8.258125 2.0825 9.51625 2.165 10.8125 2.25 C14.72231986 2.71364236 14.72231986 2.71364236 17 5.0625 C17.495 6.0215625 17.495 6.0215625 18 7 C17.01 7 16.02 7 15 7 C15 7.66 15 8.32 15 9 C14.01 9 13.02 9 12 9 C12 8.34 12 7.68 12 7 C9.36 7 6.72 7 4 7 C4 6.01 4 5.02 4 4 C-16.79 4 -37.58 4 -59 4 C-59 34.03 -59 64.06 -59 95 C-38.21 95 -17.42 95 4 95 C4 94.34 4 93.68 4 93 C5.7015625 92.814375 5.7015625 92.814375 7.4375 92.625 C9.2009375 92.315625 9.2009375 92.315625 11 92 C11.33 91.34 11.66 90.68 12 90 C12.99 90 13.98 90 15 90 C15 89.34 15 88.68 15 88 C16.65 87.67 18.3 87.34 20 87 C20 86.34 20 85.68 20 85 C20.99 85 21.98 85 23 85 C23 84.01 23 83.02 23 82 C23.66 82 24.32 82 25 82 C25 81.01 25 80.02 25 79 C26.32 79 27.64 79 29 79 C29.495 77.02 29.495 77.02 30 75 C31.98 75.99 31.98 75.99 34 77 C32 80 32 80 29 81 C28.67 82.65 28.34 84.3 28 86 C26.515 86.495 26.515 86.495 25 87 C24.54625 87.680625 24.0925 88.36125 23.625 89.0625 C22 91 22 91 19.3125 91.25 C18.549375 91.1675 17.78625 91.085 17 91 C17 91.99 17 92.98 17 94 C15.35 94.33 13.7 94.66 12 95 C12 95.66 12 96.32 12 97 C11.38511719 97.04898438 10.77023438 97.09796875 10.13671875 97.1484375 C8.92435547 97.26058594 8.92435547 97.26058594 7.6875 97.375 C6.48673828 97.47941406 6.48673828 97.47941406 5.26171875 97.5859375 C2.72775559 97.89564426 2.72775559 97.89564426 0 100 C-2.47056823 100.17112002 -4.82503921 100.23253124 -7.29296875 100.1953125 C-7.99899734 100.1924826 -8.70502594 100.18965271 -9.43244934 100.18673706 C-11.68430633 100.17555464 -13.93576352 100.1504542 -16.1875 100.125 C-17.71548904 100.11496767 -19.24348433 100.10584226 -20.77148438 100.09765625 C-24.51447663 100.07562172 -28.25717056 100.04110567 -32 100 C-31.67 99.34 -31.34 98.68 -31 98 C-40.57 97.67 -50.14 97.34 -60 97 C-60 65.98 -60 34.96 -60 3 C-39.87 3 -19.74 3 1 3 C0.505 1.515 0.505 1.515 0 0 Z " fill="#24315B" transform="translate(67,2)"/>
<path d="M0 0 C17.49 0 34.98 0 53 0 C53 0.66 53 1.32 53 2 C36.17 2 19.34 2 2 2 C2 4.64 2 7.28 2 10 C2.55985596 9.98428955 3.11971191 9.9685791 3.6965332 9.95239258 C6.2350859 9.89000152 8.77347729 9.85099782 11.3125 9.8125 C12.19357422 9.78736328 13.07464844 9.76222656 13.98242188 9.73632812 C15.25375977 9.72182617 15.25375977 9.72182617 16.55078125 9.70703125 C17.72120972 9.68346558 17.72120972 9.68346558 18.9152832 9.65942383 C21.58758468 10.09599258 22.31945625 10.91049198 24 13 C24.36076355 14.87931824 24.36076355 14.87931824 24.34057617 17.01245117 C24.34034958 17.81305466 24.34012299 18.61365814 24.33988953 19.43852234 C24.32440567 20.29798965 24.30892181 21.15745697 24.29296875 22.04296875 C24.28872391 22.9265657 24.28447906 23.81016266 24.28010559 24.72053528 C24.26331043 27.54316661 24.22565697 30.36508441 24.1875 33.1875 C24.17245423 35.10090115 24.15876564 37.01431349 24.14648438 38.92773438 C24.11340419 43.61876459 24.0616163 48.30926131 24 53 C26.97 52.505 26.97 52.505 30 52 C30.33 39.46 30.66 26.92 31 14 C31.33 14 31.66 14 32 14 C32 27.53 32 41.06 32 55 C28.37 55 24.74 55 21 55 C21 41.14 21 27.28 21 13 C14.07 13 7.14 13 0 13 C0 8.71 0 4.42 0 0 Z " fill="#309698" transform="translate(34,33)"/>
<path d="M0 0 C18.81 0 37.62 0 57 0 C57 4.95 57 9.9 57 15 C50.07 15 43.14 15 36 15 C36.01160156 18.02027344 36.02320313 21.04054688 36.03515625 24.15234375 C36.04294609 27.0646962 36.04902326 29.9770475 36.05493164 32.8894043 C36.05997278 34.91968298 36.06680557 36.94995802 36.07543945 38.98022461 C36.08751467 41.89177347 36.09323034 44.8032745 36.09765625 47.71484375 C36.10281754 48.6283812 36.10797882 49.54191864 36.11329651 50.48313904 C36.11349168 52.65575427 36.06211805 54.82827296 36 57 C35 58 35 58 32.05859375 58.09765625 C30.86363281 58.08605469 29.66867188 58.07445312 28.4375 58.0625 C26.64119141 58.04896484 26.64119141 58.04896484 24.80859375 58.03515625 C23.88175781 58.02355469 22.95492187 58.01195312 22 58 C22 57.34 22 56.68 22 56 C25.63 56 29.26 56 33 56 C33 42.14 33 28.28 33 14 C39.93 14 46.86 14 54 14 C54 9.71 54 5.42 54 1 C36.51 1 19.02 1 1 1 C1 5.29 1 9.58 1 14 C7.93 14 14.86 14 22 14 C22 14.33 22 14.66 22 15 C14.74 15 7.48 15 0 15 C0 10.05 0 5.1 0 0 Z " fill="#1E5974" transform="translate(33,32)"/>
<path d="M0 0 C1.32 0.66 2.64 1.32 4 2 C2 5 2 5 -1 6 C-1.33 7.65 -1.66 9.3 -2 11 C-2.99 11.33 -3.98 11.66 -5 12 C-5.45375 12.680625 -5.9075 13.36125 -6.375 14.0625 C-8 16 -8 16 -10.6875 16.25 C-11.450625 16.1675 -12.21375 16.085 -13 16 C-13 16.99 -13 17.98 -13 19 C-14.65 19.33 -16.3 19.66 -18 20 C-18 20.66 -18 21.32 -18 22 C-18.92232422 22.07347656 -18.92232422 22.07347656 -19.86328125 22.1484375 C-20.67152344 22.22320312 -21.47976562 22.29796875 -22.3125 22.375 C-23.11300781 22.44460937 -23.91351563 22.51421875 -24.73828125 22.5859375 C-27.27224441 22.89564426 -27.27224441 22.89564426 -30 25 C-32.47056823 25.17112002 -34.82503921 25.23253124 -37.29296875 25.1953125 C-37.99899734 25.1924826 -38.70502594 25.18965271 -39.43244934 25.18673706 C-41.68430633 25.17555464 -43.93576352 25.1504542 -46.1875 25.125 C-47.71548904 25.11496767 -49.24348433 25.10584226 -50.77148438 25.09765625 C-54.51447663 25.07562172 -58.25717056 25.04110567 -62 25 C-61.67 24.34 -61.34 23.68 -61 23 C-70.57 22.67 -80.14 22.34 -90 22 C-90 21.67 -90 21.34 -90 21 C-68.88 20.67 -47.76 20.34 -26 20 C-26 19.34 -26 18.68 -26 18 C-24.865625 17.87625 -23.73125 17.7525 -22.5625 17.625 C-21.386875 17.41875 -20.21125 17.2125 -19 17 C-18.67 16.34 -18.34 15.68 -18 15 C-17.01 15 -16.02 15 -15 15 C-15 14.34 -15 13.68 -15 13 C-12.525 12.505 -12.525 12.505 -10 12 C-10 11.34 -10 10.68 -10 10 C-9.01 10 -8.02 10 -7 10 C-7 9.01 -7 8.02 -7 7 C-6.34 7 -5.68 7 -5 7 C-5 6.01 -5 5.02 -5 4 C-3.68 4 -2.36 4 -1 4 C-0.67 2.68 -0.34 1.36 0 0 Z " fill="#3C4A6D" transform="translate(97,77)"/>
<path d="M0 0 C1.32 0 2.64 0 4 0 C4 0.99 4 1.98 4 3 C4.99 3 5.98 3 7 3 C7.33 3.99 7.66 4.98 8 6 C9.29135981 9.14559878 9.29135981 9.14559878 12 11 C12.73075648 13.3140622 13.40138258 15.64828869 14 18 C14.33 18 14.66 18 15 18 C15.33 20.31 15.66 22.62 16 25 C16.33 25 16.66 25 17 25 C17.02900455 28.6041498 17.04680018 32.20826962 17.0625 35.8125 C17.07087891 36.83666016 17.07925781 37.86082031 17.08789062 38.91601562 C17.09272461 40.39038086 17.09272461 40.39038086 17.09765625 41.89453125 C17.10551147 43.25348511 17.10551147 43.25348511 17.11352539 44.63989258 C17 47 17 47 16 50 C15.65179959 51.66362417 15.31595508 53.32995171 15 55 C14.34 54.34 13.68 53.68 13 53 C12.67 55.64 12.34 58.28 12 61 C10.35 60.67 8.7 60.34 7 60 C7.28657394 58.45737855 7.57953877 56.91594394 7.875 55.375 C8.03742188 54.51648438 8.19984375 53.65796875 8.3671875 52.7734375 C9 50 9 50 10.05078125 47.24609375 C11.29296276 42.99813971 11.32989859 39.08934327 11.3125 34.6875 C11.33666992 33.4819043 11.33666992 33.4819043 11.36132812 32.25195312 C11.36555172 27.0020202 10.51226446 22.73248137 8.64526367 17.82348633 C8 16 8 16 8 14 C7.34 14 6.68 14 6 14 C6 12.35 6 10.7 6 9 C5.34 9 4.68 9 4 9 C4 8.01 4 7.02 4 6 C3.01 6 2.02 6 1 6 C1 5.01 1 4.02 1 3 C0.34 3 -0.32 3 -1 3 C-0.67 2.01 -0.34 1.02 0 0 Z M15 32 C15 35.3 15 38.6 15 42 C15.33 42 15.66 42 16 42 C16 38.7 16 35.4 16 32 C15.67 32 15.34 32 15 32 Z " fill="#425270" transform="translate(91,16)"/>
<path d="M0 0 C20.79 0 41.58 0 63 0 C63.495 1.485 63.495 1.485 64 3 C42.88 3 21.76 3 0 3 C0 2.01 0 1.02 0 0 Z " fill="#677089" transform="translate(4,2)"/>
<path d="M0 0 C17.49 0 34.98 0 53 0 C53 0.66 53 1.32 53 2 C36.17 2 19.34 2 2 2 C2.33 5.3 2.66 8.6 3 12 C8.61 12 14.22 12 20 12 C20 12.33 20 12.66 20 13 C13.4 13 6.8 13 0 13 C0 8.71 0 4.42 0 0 Z " fill="#297A88" transform="translate(34,33)"/>
<path d="M0 0 C2.31 0 4.62 0 7 0 C7 0.66 7 1.32 7 2 C8.258125 2.0825 9.51625 2.165 10.8125 2.25 C14.72231986 2.71364236 14.72231986 2.71364236 17 5.0625 C17.495 6.0215625 17.495 6.0215625 18 7 C17.01 7 16.02 7 15 7 C15 7.66 15 8.32 15 9 C14.01 9 13.02 9 12 9 C12 8.34 12 7.68 12 7 C9.36 7 6.72 7 4 7 C4 6.01 4 5.02 4 4 C-17.12 4 -38.24 4 -60 4 C-60 3.67 -60 3.34 -60 3 C-39.87 3 -19.74 3 1 3 C0.505 1.515 0.505 1.515 0 0 Z " fill="#323F64" transform="translate(67,2)"/>
<path d="M0 0 C16.83 0 33.66 0 51 0 C51 3.63 51 7.26 51 11 C44.07 11 37.14 11 30 11 C30 10.34 30 9.68 30 9 C32.296537 7.8517315 33.58313167 7.88438825 36.1328125 7.90234375 C36.93847656 7.90556641 37.74414062 7.90878906 38.57421875 7.91210938 C39.41597656 7.92048828 40.25773437 7.92886719 41.125 7.9375 C41.97449219 7.94201172 42.82398438 7.94652344 43.69921875 7.95117188 C45.79950909 7.96297126 47.8997633 7.98090694 50 8 C50 5.69 50 3.38 50 1 C33.83 1 17.66 1 1 1 C1 3.31 1 5.62 1 8 C0.67 8 0.34 8 0 8 C0 5.36 0 2.72 0 0 Z " fill="#2D9597" transform="translate(36,35)"/>
<path d="M0 0 C0.33 0 0.66 0 1 0 C1 32.67 1 65.34 1 99 C0.67 99 0.34 99 0 99 C0 66.33 0 33.66 0 0 Z " fill="#3E5270" transform="translate(2,2)"/>
<path d="M0 0 C6.27 0 12.54 0 19 0 C19 13.53 19 27.06 19 41 C16.02144644 38.02144644 16.64374816 34.70975177 16.5859375 30.7109375 C16.56657135 29.89251373 16.5472052 29.07408997 16.5272522 28.23086548 C16.46738918 25.61235024 16.42104468 22.99379119 16.375 20.375 C16.33682636 18.60154314 16.29777499 16.82810495 16.2578125 15.0546875 C16.16168229 10.70327625 16.07767649 6.35177821 16 2 C10.72 1.67 5.44 1.34 0 1 C0 0.67 0 0.34 0 0 Z " fill="#0C375C" transform="translate(36,47)"/>
<path d="M0 0 C1.32 0 2.64 0 4 0 C4 0.99 4 1.98 4 3 C4.99 3 5.98 3 7 3 C7.33 3.99 7.66 4.98 8 6 C9.29135981 9.14559878 9.29135981 9.14559878 12 11 C12.59355614 13.64860427 12.74209269 16.29197322 13 19 C11.68 19.33 10.36 19.66 9 20 C8.67 18.02 8.34 16.04 8 14 C7.34 14 6.68 14 6 14 C6 12.35 6 10.7 6 9 C5.34 9 4.68 9 4 9 C4 8.01 4 7.02 4 6 C3.01 6 2.02 6 1 6 C1 5.01 1 4.02 1 3 C0.34 3 -0.32 3 -1 3 C-0.67 2.01 -0.34 1.02 0 0 Z " fill="#435273" transform="translate(91,16)"/>
<path d="M0 0 C0.33 0 0.66 0 1 0 C1.22396532 2.83285869 1.42949305 5.66514924 1.625 8.5 C1.68945312 9.29148437 1.75390625 10.08296875 1.8203125 10.8984375 C2.18143701 16.40558633 1.57183696 20.70777197 0 26 C-0.33937204 27.33180911 -0.67429252 28.66478334 -1 30 C-2.32 29.67 -3.64 29.34 -5 29 C-4.71342606 27.45737855 -4.42046123 25.91594394 -4.125 24.375 C-3.96257812 23.51648438 -3.80015625 22.65796875 -3.6328125 21.7734375 C-3 19 -3 19 -1.96875 16.09375 C-0.90805929 12.70638289 -0.59160222 9.66283632 -0.375 6.125 C-0.30023438 4.97257812 -0.22546875 3.82015625 -0.1484375 2.6328125 C-0.09945312 1.76398437 -0.05046875 0.89515625 0 0 Z " fill="#3C4B6D" transform="translate(103,47)"/>
<path d="M0 0 C21.45 0 42.9 0 65 0 C65 0.33 65 0.66 65 1 C43.55 1 22.1 1 0 1 C0 0.67 0 0.34 0 0 Z " fill="#334F72" transform="translate(4,0)"/>
<path d="M0 0 C-0.33 0.66 -0.66 1.32 -1 2 C-9.91 2 -18.82 2 -28 2 C-27.67 1.34 -27.34 0.68 -27 0 C-23.25044125 -0.19713345 -19.50034696 -0.3810316 -15.75 -0.5625 C-14.68652344 -0.61857422 -13.62304688 -0.67464844 -12.52734375 -0.73242188 C-11.50253906 -0.78076172 -10.47773437 -0.82910156 -9.421875 -0.87890625 C-8.47924805 -0.9260376 -7.53662109 -0.97316895 -6.56542969 -1.02172852 C-4.17740544 -1.00150258 -2.27325608 -0.69460602 0 0 Z " fill="#475271" transform="translate(63,100)"/>
<path d="M0 0 C1.60520004 0.06023265 3.20934327 0.14908599 4.8125 0.25 C6.15248047 0.31960937 6.15248047 0.31960937 7.51953125 0.390625 C10 1 10 1 11.82421875 3.046875 C12.40623047 4.01367188 12.40623047 4.01367188 13 5 C12.01 5 11.02 5 10 5 C10 5.66 10 6.32 10 7 C9.01 7 8.02 7 7 7 C7 6.34 7 5.68 7 5 C4.36 5 1.72 5 -1 5 C-0.67 3.35 -0.34 1.7 0 0 Z " fill="#515F7D" transform="translate(72,4)"/>
<path d="M0 0 C1.32 0 2.64 0 4 0 C4 0.99 4 1.98 4 3 C4.99 3 5.98 3 7 3 C7 4.98 7 6.96 7 9 C6.01 9 5.02 9 4 9 C4 8.01 4 7.02 4 6 C3.01 6 2.02 6 1 6 C1 5.01 1 4.02 1 3 C0.34 3 -0.32 3 -1 3 C-0.67 2.01 -0.34 1.02 0 0 Z " fill="#54627E" transform="translate(91,16)"/>
<path d="M0 0 C0.33 0 0.66 0 1 0 C1.22155127 2.93705131 1.42774197 5.87380363 1.625 8.8125 C1.68945312 9.64587891 1.75390625 10.47925781 1.8203125 11.33789062 C1.871875 12.14033203 1.9234375 12.94277344 1.9765625 13.76953125 C2.02893066 14.50792236 2.08129883 15.24631348 2.13525391 16.00708008 C2 18 2 18 0 21 C-0.99 21 -1.98 21 -3 21 C-2.5359375 19.4221875 -2.5359375 19.4221875 -2.0625 17.8125 C-0.57796206 11.96910597 -0.34748289 5.99865199 0 0 Z " fill="#324167" transform="translate(103,47)"/>
<path d="M0 0 C0.33 1.32 0.66 2.64 1 4 C-0.65 4 -2.3 4 -4 4 C-4.33 4.66 -4.66 5.32 -5 6 C-6.32 5.01 -7.64 4.02 -9 3 C-8.01 3 -7.02 3 -6 3 C-6 2.34 -6 1.68 -6 1 C-4 0 -4 0 0 0 Z " fill="#334366" transform="translate(88,89)"/>
<path d="M0 0 C2.31 0 4.62 0 7 0 C7 0.66 7 1.32 7 2 C7.99 2.33 8.98 2.66 10 3 C7 5 7 5 4 5 C1.8125 2.5 1.8125 2.5 0 0 Z " fill="#566482" transform="translate(83,11)"/>
<path d="M0 0 C0 0.66 0 1.32 0 2 C0.66 2.33 1.32 2.66 2 3 C-0.64 3 -3.28 3 -6 3 C-6.33 3.66 -6.66 4.32 -7 5 C-7 4.01 -7 3.02 -7 2 C-4.35261084 0.5393715 -3.10551666 0 0 0 Z " fill="#435173" transform="translate(82,93)"/>
<path d="M0 0 C1.65 0 3.3 0 5 0 C3.02 0.99 3.02 0.99 1 2 C0.67 1.34 0.34 0.68 0 0 Z " fill="#364C6E" transform="translate(71,100)"/>
<path d="M0 0 C0.99 0.33 1.98 0.66 3 1 C2.01 1.33 1.02 1.66 0 2 C0 1.34 0 0.68 0 0 Z " fill="#3A5373" transform="translate(96,83)"/>
<path d="M0 0 C0.99 0.495 0.99 0.495 2 1 C1.01 1.495 1.01 1.495 0 2 C0 1.34 0 0.68 0 0 Z " fill="#364D6C" transform="translate(85,94)"/>
<path d="M0 0 C2 1 2 1 2 1 Z " fill="#3C5272" transform="translate(80,97)"/>
<path d="" fill="#405C7A" transform="translate(0,0)"/>
<path d="M0 0 C2 1 2 1 2 1 Z " fill="#475A78" transform="translate(85,9)"/>
<path d="" fill="#314B6F" transform="translate(0,0)"/>
<path d="" fill="#224169" transform="translate(0,0)"/>
<path d="" fill="#304D6E" transform="translate(0,0)"/>
<path d="" fill="#455F7C" transform="translate(0,0)"/>
<path d="" fill="#204968" transform="translate(0,0)"/>
<path d="" fill="#335575" transform="translate(0,0)"/>
<path d="" fill="#3B5373" transform="translate(0,0)"/>
<path d="" fill="#325373" transform="translate(0,0)"/>
<path d="" fill="#214A6D" transform="translate(0,0)"/>
<path d="" fill="#224B6E" transform="translate(0,0)"/>
<path d="" fill="#405C7A" transform="translate(0,0)"/>
<path d="" fill="#516581" transform="translate(0,0)"/>
</svg>
